<svg xmlns="http://www.w3.org/2000/svg" viewBox="0 0 100 100">
  <defs>
    <linearGradient id="gradient" x1="0%" y1="0%" x2="100%" y2="100%">
      <stop offset="0%" style="stop-color:#a78bfa;stop-opacity:1" />
      <stop offset="50%" style="stop-color:#c4b5fd;stop-opacity:1" />
      <stop offset="100%" style="stop-color:#f472b6;stop-opacity:1" />
    </linearGradient>
  </defs>
  <rect width="100" height="100" rx="24" fill="url(#gradient)"/>
  <!-- Stylized JM monogram -->
  <g fill="#000000" opacity="0.9">
    <!-- J -->
    <path d="M 28 30 L 28 70 L 38 70 L 38 50 L 48 50 L 48 70 L 58 70 L 58 30 L 48 30 L 48 40 L 38 40 L 38 30 Z"/>
    <!-- M -->
    <path d="M 62 30 L 62 70 L 72 70 L 72 50 Q 72 40 77 40 Q 82 40 82 50 L 82 70 L 92 70 L 92 30 L 82 30 L 82 40 L 77 40 Q 72 40 72 30 Z"/>
  </g>
</svg>
